3.0Hz3min_grf.mot
version=1
nRows=10
nColumns 19
inDegrees=yes
endheader
time	1_ground_force_vx	1_ground_force_vy	1_ground_force_vz	1_ground_force_px	1_ground_force_py	1_ground_force_pz	1_ground_torque_x	1_ground_torque_y	1_ground_torque_z	2_ground_force_vx	2_ground_force_vy	2_ground_force_vz	2_ground_force_px	2_ground_force_py	2_ground_force_pz	2_ground_torque_x	2_ground_torque_y	2_ground_torque_z
            3.751500	          -22.844938	          871.683689	         -104.428589	           -0.263603	            0.006234	           -0.409124	           -0.160314	            6.117011	           -0.732824	          -14.479607	         1081.344871	          140.707093	           -0.276865	            0.005658	           -0.746507	            0.116963	           -8.734889	           -1.136604
            3.752000	          -23.348356	          868.258181	         -104.350320	           -0.263151	            0.006233	           -0.409017	           -0.161827	            6.017898	           -0.723252	          -14.369436	         1076.742681	          140.362138	           -0.276698	            0.005659	           -0.746520	            0.115297	           -8.639532	           -1.126233
            3.752500	          -24.079756	          865.551211	         -103.718104	           -0.262780	            0.006232	           -0.408668	           -0.163637	            5.881956	           -0.704829	          -14.872095	         1073.241584	          140.490650	           -0.276428	            0.005660	           -0.746600	            0.118423	           -8.546003	           -1.118698
            3.753000	          -24.719648	          861.943610	         -103.227551	           -0.262409	            0.006232	           -0.408656	           -0.164833	            5.747524	           -0.688331	          -15.609628	         1069.923386	          140.713790	           -0.276232	            0.005661	           -0.746590	            0.121696	           -8.341353	           -1.097035
            3.753500	          -25.268371	          857.435971	         -103.016234	           -0.262101	            0.006232	           -0.408556	           -0.165252	            5.607522	           -0.673713	          -16.208748	         1067.159350	          140.610322	           -0.276058	            0.005662	           -0.746749	            0.124920	           -8.224552	           -1.083678
            3.754000	          -25.632975	          852.566473	         -102.531775	           -0.261830	            0.006233	           -0.408816	           -0.166512	            5.538275	           -0.666047	          -16.615090	         1062.922119	          140.642324	           -0.275761	            0.005663	           -0.746718	            0.127085	           -8.130039	           -1.075740
            3.754500	          -26.044806	          848.420313	         -102.548529	           -0.261703	            0.006233	           -0.408907	           -0.168996	            5.505124	           -0.665404	          -16.976618	         1059.238119	          140.582407	           -0.275585	            0.005664	           -0.746769	            0.128463	           -8.015338	           -1.063798
            3.755000	          -26.547185	          845.533605	         -102.009374	           -0.261288	            0.006231	           -0.408472	           -0.168899	            5.379480	           -0.649007	          -17.426528	         1054.080411	          140.517303	           -0.275480	            0.005664	           -0.746751	            0.131253	           -7.939094	           -1.058344
            3.755500	          -26.820755	          841.746566	         -101.703944	           -0.261053	            0.006232	           -0.408502	           -0.169849	            5.330572	           -0.644066	          -17.555032	         1050.764580	          140.693248	           -0.275284	            0.005665	           -0.746817	            0.130874	           -7.833496	           -1.048874
            3.756000	          -27.277286	          836.336996	         -101.359148	           -0.260728	            0.006232	           -0.408557	           -0.170671	            5.232871	           -0.634193	          -17.962827	         1046.896756	          140.444981	           -0.275110	            0.005666	           -0.746889	            0.132892	           -7.745142	           -1.039039
